<?xml version="1.0" encoding="iso-8859-1"?>
<!-- Generator: Adobe Illustrator 19.0.0, SVG Export Plug-In . SVG Version: 6.00 Build 0)  -->
<svg xmlns="http://www.w3.org/2000/svg" xmlns:xlink="http://www.w3.org/1999/xlink" version="1.1" id="Capa_1" x="0px" y="0px" viewBox="0 0 512 512" style="enable-background:new 0 0 512 512;" xml:space="preserve" width="512px" height="512px">
<g>
	<g>
		<g>
			<path d="M315.145,98.467c39.626,0,79.625,23.891,79.625,77.282c0,9.052,7.331,16.383,16.383,16.383     c9.052,0,16.383-7.331,16.383-16.383c0-72.241-56.533-110.048-112.382-110.048c-29.367,0-56.959,9.762-77.691,27.477     c-23.74,20.297-36.289,48.847-36.289,82.581v36.52c0,6.133,3.426,11.733,8.866,14.546c5.449,2.813,12.008,2.343,17.004-1.189     c10.401-7.357,31.701-18.185,44.889-15.744c3.807,0.701,6.381,2.405,8.609,5.715c3.435,5.094,4.313,9.745,2.84,15.105     c-5.449,19.773-39.795,42.315-60.172,51.874c-8.183,3.843-11.724,13.587-7.881,21.779c2.787,5.946,8.688,9.443,14.848,9.443     c2.316,0,4.677-0.488,6.905-1.553c6.789-3.168,66.606-32.136,77.859-72.8c4.038-14.599,1.526-29.189-7.251-42.2     c-7.153-10.579-17.519-17.377-29.979-19.622c-14.963-2.742-30.911,1.58-43.789,7.011v-8.893     C233.922,122.651,276.024,98.467,315.145,98.467z" fill="#8abc43"/>
			<path d="M316.201,0c-47.241,0-91.535,15.629-124.727,43.975c-37.754,32.278-57.713,77.85-57.713,131.774     c0,9.052,7.331,16.383,16.383,16.383c9.052,0,16.383-7.331,16.383-16.383c0-98.245,77.593-142.992,149.683-142.992     c39.014,0,75.126,12.656,101.662,35.633c29.633,25.666,45.306,62.79,45.306,107.368c0,75.543-32.597,100.464-67.103,126.857     c-28.364,21.699-60.527,46.291-70.12,98.387c-6.567,35.686-24.708,78.232-73.786,78.232c-42.599,0-70.138-29.544-70.138-75.268     c0-9.052-7.331-16.383-16.383-16.383s-16.383,7.331-16.383,16.383C149.265,467.572,191.58,512,252.169,512     c55.077,0,93.719-38.286,106.001-105.052c7.322-39.662,30.716-57.571,57.811-78.294c37.479-28.666,79.954-61.157,79.954-152.887     C495.935,54.998,402.766,0,316.201,0z" fill="#8abc43"/>
			<path d="M44.044,211.532c-6.381-6.408-16.756-6.408-23.163-0.027s-6.425,16.756-0.027,23.163     c15.034,15.078,23.323,35.091,23.323,56.364c0,21.246-8.289,41.241-23.323,56.32c-6.399,6.399-6.381,16.773,0.027,23.163     c3.204,3.186,7.384,4.784,11.573,4.784c4.207,0,8.396-1.606,11.591-4.81c21.22-21.255,32.89-49.477,32.89-79.457     C76.935,261.019,65.264,232.788,44.044,211.532z" fill="#8abc43"/>
			<path d="M64.856,157.254c-6.408,6.39-6.425,16.765-0.035,23.172c29.775,29.855,46.185,69.49,46.185,111.601     c0,42.076-16.41,81.702-46.185,111.566c-6.39,6.408-6.372,16.782,0.035,23.172c3.204,3.186,7.384,4.775,11.573,4.775     c4.207,0,8.404-1.606,11.599-4.792c35.943-36.059,55.734-83.894,55.734-134.712c0-50.844-19.791-98.697-55.734-134.747     C81.629,150.891,71.264,150.873,64.856,157.254z" fill="#8abc43"/>
		</g>
	</g>
</g>
<g>
</g>
<g>
</g>
<g>
</g>
<g>
</g>
<g>
</g>
<g>
</g>
<g>
</g>
<g>
</g>
<g>
</g>
<g>
</g>
<g>
</g>
<g>
</g>
<g>
</g>
<g>
</g>
<g>
</g>
</svg>
